<svg width="908" height="529" viewBox="0 0 908 529" fill="none" xmlns="http://www.w3.org/2000/svg">
<path d="M452.67 529C594.828 529 710.069 413.758 710.069 271.601C710.069 129.443 594.828 14.2014 452.67 14.2014C310.512 14.2014 195.271 129.443 195.271 271.601C195.271 413.758 310.512 529 452.67 529Z" fill="#F0F9FF"/>
<path d="M317.823 360.359C329.183 383.082 347.407 373.376 353.327 363.909L532.619 211.245C531.197 198.464 515.458 192.902 507.765 191.718H417.232C404.451 191.718 402.439 185.801 403.032 182.842C401.61 172.901 394.155 170.416 390.605 170.416H321.373C304.331 170.416 301.254 184.617 301.846 191.718L317.823 360.359Z" fill="black"/>
<path d="M525.45 386.987C582.255 386.987 587.582 390.537 589.355 344.383L598.232 232.547C599.651 215.506 582.255 210.062 573.378 209.47H390.537C370.655 209.47 362.133 228.405 360.359 237.873L349.709 362.136C338.346 380.596 324.855 369.827 319.531 362.136C320.95 380.596 340.242 386.397 349.709 386.987H525.45Z" fill="#EB2429"/>
<path d="M444.436 314.025C450.781 314.025 455.925 308.882 455.925 302.536C455.925 296.191 450.781 291.048 444.436 291.048C438.091 291.048 432.947 296.191 432.947 302.536C432.947 308.882 438.091 314.025 444.436 314.025Z" fill="black"/>
<path d="M517.201 314.025C523.546 314.025 528.69 308.882 528.69 302.536C528.69 296.191 523.546 291.048 517.201 291.048C510.856 291.048 505.712 296.191 505.712 302.536C505.712 308.882 510.856 314.025 517.201 314.025Z" fill="black"/>
<path d="M493.265 331.258H477.946C475.302 331.258 473.159 333.402 473.159 336.045V336.045C473.159 338.689 475.302 340.832 477.946 340.832H493.265C495.908 340.832 498.052 338.689 498.052 336.045V336.045C498.052 333.402 495.908 331.258 493.265 331.258Z" fill="black"/>
<path d="M448.335 264.179L428.669 270.895C426.318 271.698 425.062 274.256 425.865 276.608L425.865 276.608C426.669 278.959 429.226 280.215 431.578 279.412L451.243 272.696C453.595 271.893 454.85 269.335 454.047 266.983L454.047 266.983C453.244 264.632 450.686 263.376 448.335 264.179Z" fill="black"/>
<path d="M532.456 269.739L512.384 264.361C509.983 263.718 507.516 265.142 506.872 267.543L506.872 267.543C506.229 269.943 507.654 272.411 510.054 273.054L530.127 278.432C532.527 279.075 534.994 277.651 535.638 275.25L535.638 275.25C536.281 272.85 534.856 270.382 532.456 269.739Z" fill="black"/>
<path d="M887.584 134.524H685.212C656.811 131.684 649.711 104.938 649.711 91.9204C649.711 54.9968 680.479 46.9492 695.865 47.5409C694.444 16.298 715.39 3.75352 726.043 1.38661C754.444 -5.71409 769.831 16.1796 773.971 28.0141C803.794 10.9724 820.719 30.381 825.452 42.2155C856.694 32.2745 866.873 52.2747 868.057 63.5174C900.717 66.3578 907.701 89.5533 907.108 100.796C907.108 122.098 894.091 132.157 887.584 134.524Z" fill="#EDF4FF"/>
<path d="M816.577 157.99H614.208C585.804 155.15 578.704 128.404 578.704 115.386C578.704 78.4624 609.475 70.4151 624.859 71.0068C623.44 39.7637 644.386 27.2192 655.036 24.8523C683.44 17.7516 698.824 39.6453 702.967 51.4797C732.79 34.4382 749.712 53.8467 754.445 65.681C785.69 55.7401 795.866 75.7403 797.05 86.9832C829.713 89.8233 836.694 113.019 836.104 124.262C836.104 145.564 823.087 155.623 816.577 157.99Z" fill="white"/>
<path d="M237.873 141.626H35.5033C7.10068 138.785 0 112.039 0 99.0214C0 62.0978 30.7695 54.0506 46.1545 54.6423C44.7342 23.3992 65.6814 10.8547 76.3323 8.4878C104.735 1.38712 120.12 23.2808 124.262 35.1151C154.085 18.0736 171.008 37.4822 175.742 49.3165C206.985 39.3756 217.162 59.3761 218.346 70.6187C251.009 73.4588 257.991 96.6544 257.399 107.897C257.399 129.199 244.382 139.258 237.873 141.626Z" fill="#EDF4FF"/>
<path d="M294.678 157.99H92.3092C63.9065 155.15 56.8057 128.404 56.8057 115.386C56.8057 78.4624 87.5754 70.4151 102.96 71.0068C101.54 39.7637 122.487 27.2192 133.138 24.8523C161.541 17.7516 176.925 39.6453 181.068 51.4797C210.891 34.4382 227.814 53.8467 232.548 65.681C263.791 55.7401 273.968 75.7403 275.152 86.9832C307.815 89.8233 314.799 113.019 314.205 124.262C314.205 145.564 301.187 155.623 294.678 157.99Z" fill="white"/>
<path d="M228.999 346.159C228.999 303.554 187.579 289.352 166.868 287.577C117.162 294.678 118.939 332.548 136.69 369.236C344.387 584.031 633.145 464.502 697.643 420.714C717.17 399.413 710.07 373.969 695.869 367.459C590.779 323.436 536.102 376.336 521.902 408.287C477.878 394.087 438.469 411.84 424.269 422.491C404.387 399.768 357.994 401.187 337.284 404.737C310.302 340.832 253.852 339.058 228.999 346.159Z" fill="url(#paint0_linear_1_1038)"/>
<defs>
<linearGradient id="paint0_linear_1_1038" x1="417.468" y1="287.577" x2="417.468" y2="493.52" gradientUnits="userSpaceOnUse">
<stop stop-color="white"/>
<stop offset="1" stop-color="white" stop-opacity="0"/>
</linearGradient>
</defs>
</svg>
